<?xml version="1.0" encoding="utf-8"?>
<!-- Generator: Adobe Illustrator 22.0.1, SVG Export Plug-In . SVG Version: 6.00 Build 0)  -->
<svg version="1.1" id="Layer_1" xmlns="http://www.w3.org/2000/svg" xmlns:xlink="http://www.w3.org/1999/xlink" x="0px" y="0px"
	 viewBox="0 0 600 600" style="enable-background:new 0 0 600 600;" xml:space="preserve">
<style type="text/css">
	.st0{fill:#FFFFFF;}
</style>
<g id="CrownstoneLogo">
	<path stroke="#FFFFFF" id="svg_1" fill="#000" d="m489.1,202.29999c-26.8,0 -48.4,21.9 -48.4,48.9c0,12.8 4.8,24.4 12.8,33l-40.6,72.1c-3.1,-0.6 -6.5,-1 -9.8,-1c-2.8,0 -5.6,0.3 -8.3,0.8l-60.7,-125.5c8.9,-8.9 14.4,-21.2 14.4,-34.7c0,-27 -21.7,-48.9 -48.5,-48.9s-48.5,21.9 -48.5,48.9c0,13.7 5.5,26 14.4,34.8l-60.2,125.2c-2.4,-0.4 -4.9,-0.6 -7.4,-0.6c-4,0 -7.9,0.5 -11.7,1.4l-40.5,-72.4c8,-8.7 12.9,-20.3 12.9,-33.2c0,-27 -21.7,-48.9 -48.4,-48.9s-48.4,21.9 -48.4,48.9s21.7,48.9 48.4,48.9c3.3,0 6.5,-0.3 9.7,-1l41,73.5c-7.2,8.5 -11.5,19.6 -11.5,31.6c0,27 21.7,48.9 48.4,48.9c21.9,0 40.4,-14.6 46.4,-34.7l112.2,0c6,20.1 24.5,34.7 46.5,34.7c26.8,0 48.5,-21.9 48.5,-48.9c0,-12.8 -4.9,-24.4 -12.8,-33.1l40.5,-72.1c3.2,0.6 6.5,1 9.9,1c26.8,0 48.4,-21.9 48.4,-48.9s-22,-48.7 -48.7,-48.7zm-196.8,42c2.4,0.4 4.9,0.6 7.4,0.6c2.6,0 5.1,-0.2 7.6,-0.6l61,125.9c-5,5.1 -8.9,11.4 -11.2,18.4l-113.2,0c-2.4,-7.3 -6.5,-13.7 -11.9,-19.1l60.3,-125.2z" class="st0"/>
</g>
</svg>